Normalized EMG Linear Envelopes
nRows=140
nColumns=4

endheader
time	 med_gas_r	  soleus_r	 tib_ant_r	
2.4375	  0.007942	  0.018390	  0.003900	
2.5	  0.007860	  0.019144	  0.003905	
2.5625	  0.007597	  0.020137	  0.003840	
2.625	  0.007192	  0.020804	  0.003765	
2.6875	  0.006841	  0.020296	  0.003762	
2.75	  0.006711	  0.019508	  0.003861	
2.8125	  0.006797	  0.018741	  0.004007	
2.875	  0.007003	  0.018327	  0.004148	
2.9375	  0.007124	  0.018786	  0.004196	
3	  0.007075	  0.019175	  0.004099	
3.0625	  0.007055	  0.019664	  0.003930	
3.125	  0.007159	  0.020494	  0.003808	
3.1875	  0.007301	  0.020969	  0.003771	
3.25	  0.007401	  0.021387	  0.003802	
3.3125	  0.007411	  0.021481	  0.003889	
3.375	  0.007298	  0.020966	  0.004011	
3.4375	  0.007222	  0.020708	  0.004131	
3.5	  0.007155	  0.020174	  0.004197	
3.5625	  0.007105	  0.018995	  0.004103	
3.625	  0.007053	  0.018446	  0.003867	
3.6875	  0.006979	  0.018461	  0.003673	
3.75	  0.006950	  0.018941	  0.003661	
3.8125	  0.006852	  0.019908	  0.003796	
3.875	  0.006730	  0.020747	  0.003977	
3.9375	  0.006719	  0.021679	  0.004192	
4	  0.006896	  0.022228	  0.004364	
4.0625	  0.007173	  0.021031	  0.004361	
4.125	  0.007390	  0.019161	  0.004107	
4.1875	  0.007550	  0.018527	  0.003771	
4.25	  0.007915	  0.019934	  0.003605	
4.3125	  0.008663	  0.024054	  0.003877	
4.375	  0.009599	  0.030981	  0.004836	
4.4375	  0.010858	  0.041093	  0.006738	
4.5	  0.012443	  0.052595	  0.009584	
4.5625	  0.013933	  0.062857	  0.012344	
4.625	  0.013976	  0.063185	  0.012384	
4.6875	  0.011970	  0.048679	  0.009647	
4.75	  0.009671	  0.031703	  0.006790	
4.8125	  0.007984	  0.019307	  0.004857	
4.875	  0.006813	  0.012149	  0.003761	
4.9375	  0.005662	  0.007894	  0.003057	
5	  0.004241	  0.004079	  0.002459	
5.0625	  0.002898	  0.000716	  0.001964	
5.125	  0.003043	  0.001756	  0.002052	
5.1875	  0.007181	  0.015562	  0.003851	
5.25	  0.018993	  0.054982	  0.009162	
5.3125	  0.041770	  0.131755	  0.019729	
5.375	  0.074159	  0.241076	  0.035144	
5.4375	  0.105583	  0.348549	  0.050983	
5.5	  0.123728	  0.412967	  0.061265	
5.5625	  0.124749	  0.426529	  0.064656	
5.625	  0.121731	  0.428740	  0.064993	
5.6875	  0.124044	  0.448460	  0.065548	
5.75	  0.129107	  0.481888	  0.068301	
5.8125	  0.133281	  0.509041	  0.071841	
5.875	  0.133777	  0.516872	  0.075839	
5.9375	  0.133478	  0.512409	  0.079758	
6	  0.132601	  0.501277	  0.083337	
6.0625	  0.132371	  0.498642	  0.087553	
6.125	  0.132188	  0.503794	  0.092836	
6.1875	  0.133872	  0.510081	  0.098303	
6.25	  0.141087	  0.509057	  0.102556	
6.3125	  0.156097	  0.513647	  0.104753	
6.375	  0.173833	  0.520688	  0.106884	
6.4375	  0.188955	  0.533723	  0.109399	
6.5	  0.194860	  0.544553	  0.112617	
6.5625	  0.192852	  0.526708	  0.112220	
6.625	  0.191982	  0.488395	  0.108221	
6.6875	  0.197004	  0.465000	  0.104604	
6.75	  0.207467	  0.469483	  0.102945	
6.8125	  0.216645	  0.489870	  0.103148	
6.875	  0.223959	  0.510315	  0.104182	
6.9375	  0.224063	  0.522077	  0.104799	
7	  0.219253	  0.523416	  0.107308	
7.0625	  0.217580	  0.521385	  0.111199	
7.125	  0.219800	  0.516872	  0.113157	
7.1875	  0.219128	  0.521426	  0.112086	
7.25	  0.214029	  0.532316	  0.107339	
7.3125	  0.209269	  0.546027	  0.102698	
7.375	  0.211040	  0.555886	  0.100951	
7.4375	  0.216424	  0.550247	  0.102085	
7.5	  0.215308	  0.545328	  0.104856	
7.5625	  0.212439	  0.549549	  0.107826	
7.625	  0.214360	  0.551967	  0.108710	
7.6875	  0.221159	  0.554884	  0.107825	
7.75	  0.236929	  0.555886	  0.108705	
7.8125	  0.263717	  0.551001	  0.112556	
7.875	  0.291794	  0.548470	  0.115787	
7.9375	  0.312972	  0.553986	  0.116765	
8	  0.333147	  0.565621	  0.116564	
8.0625	  0.354573	  0.584894	  0.115629	
8.125	  0.362063	  0.617589	  0.115318	
8.1875	  0.357563	  0.660678	  0.119076	
8.25	  0.352857	  0.694027	  0.126054	
8.3125	  0.349870	  0.708531	  0.130297	
8.375	  0.362505	  0.704638	  0.130066	
8.4375	  0.382845	  0.691549	  0.129095	
8.5	  0.395276	  0.678815	  0.126394	
8.5625	  0.388708	  0.655337	  0.122458	
8.625	  0.369122	  0.625616	  0.118847	
8.6875	  0.353523	  0.601677	  0.116827	
8.75	  0.340962	  0.580051	  0.117196	
8.8125	  0.326323	  0.552059	  0.117311	
8.875	  0.310826	  0.522456	  0.114257	
8.9375	  0.294350	  0.499738	  0.109616	
9	  0.278420	  0.492380	  0.107163	
9.0625	  0.263557	  0.495530	  0.106913	
9.125	  0.253190	  0.500832	  0.107584	
9.1875	  0.255775	  0.504967	  0.110171	
9.25	  0.278946	  0.514037	  0.115194	
9.3125	  0.320447	  0.526515	  0.119322	
9.375	  0.369559	  0.541636	  0.118682	
9.4375	  0.424548	  0.575427	  0.112879	
9.5	  0.473145	  0.619074	  0.104782	
9.5625	  0.502477	  0.635040	  0.098791	
9.625	  0.521523	  0.603230	  0.097638	
9.6875	  0.529352	  0.542296	  0.100850	
9.75	  0.524050	  0.490816	  0.105682	
9.8125	  0.510993	  0.466945	  0.110650	
9.875	  0.495240	  0.475296	  0.119339	
9.9375	  0.488573	  0.504742	  0.129387	
10	  0.478277	  0.537258	  0.131559	
10.0625	  0.464303	  0.554952	  0.125075	
10.125	  0.455141	  0.547306	  0.117613	
10.1875	  0.460069	  0.519056	  0.113654	
10.25	  0.471325	  0.482970	  0.114237	
10.3125	  0.477488	  0.451487	  0.116143	
10.375	  0.471640	  0.425901	  0.114779	
10.4375	  0.448302	  0.393028	  0.108360	
10.5	  0.411454	  0.342319	  0.096337	
10.5625	  0.357373	  0.280121	  0.079642	
10.625	  0.278963	  0.213012	  0.061469	
10.6875	  0.194138	  0.147301	  0.044961	
10.75	  0.114396	  0.088631	  0.034526	
10.8125	  0.052981	  0.046489	  0.033248	
10.875	  0.018448	  0.024420	  0.040687	
10.9375	  0.005341	  0.017971	  0.053969	
11	  0.004148	  0.019831	  0.068787	
11.0625	  0.007173	  0.023951	  0.078810	
11.125	  0.010268	  0.027108	  0.082607	
